<?xml version="1.0" encoding="utf-8"?>

<!-- Uploaded to: SVG Repo, www.svgrepo.com, Generator: SVG Repo Mixer Tools -->
<svg width="1em" height="1em" viewBox="-6.44 0 31.999 31.999" xmlns="http://www.w3.org/2000/svg">
  <g id="cake" transform="translate(-242.414 -185.995)">
    <g id="Group_263" data-name="Group 263">
      <g id="Group_247" data-name="Group 247">
        <g id="Group_246" data-name="Group 246">
          <path id="Path_203" data-name="Path 203" d="M261.04,214.7c0,1.544-4.057,2.8-9.062,2.8s-9.064-1.252-9.064-2.8a.926.926,0,0,1,.025-.209V196.17c.347,1.446,4.261,2.586,9.039,2.586s8.7-1.144,9.039-2.594V214.5A.864.864,0,0,1,261.04,214.7Z" fill="#f9cb99"/>
        </g>
      </g>
      <g id="Group_249" data-name="Group 249">
        <g id="Group_248" data-name="Group 248">
          <path id="Path_204" data-name="Path 204" d="M261.04,195.961a.85.85,0,0,1-.023.2c-.335,1.45-4.254,2.594-9.039,2.594a25.21,25.21,0,0,1-5.2-.5h0c-2.163-.469-3.633-1.222-3.84-2.082a.933.933,0,0,1-.025-.209c0-1.257,2.687-2.32,6.384-2.671a2.848,2.848,0,0,0,5.666.031C258.5,193.7,261.04,194.74,261.04,195.961Z" fill="#85d0bc"/>
        </g>
      </g>
      <g id="Group_254" data-name="Group 254" opacity="0.35">
        <g id="Group_251" data-name="Group 251">
          <g id="Group_250" data-name="Group 250">
            <path id="Path_205" data-name="Path 205" d="M244.414,197.586a.864.864,0,0,1,.024-.2c.334-1.45,4.253-2.594,9.039-2.594a25.21,25.21,0,0,1,5.2.5h0a11.293,11.293,0,0,1,2.36.756.943.943,0,0,0-.021-.174c-.206-.86-1.676-1.613-3.839-2.082h0a25.21,25.21,0,0,0-5.2-.5c-4.786,0-8.705,1.144-9.039,2.594a.864.864,0,0,0-.024.2c0,.569.558,1.1,1.505,1.539C244.419,197.612,244.414,197.6,244.414,197.586Z" fill="#ffffff"/>
          </g>
        </g>
        <g id="Group_253" data-name="Group 253">
          <g id="Group_252" data-name="Group 252">
            <path id="Path_206" data-name="Path 206" d="M254.429,197.909a2.807,2.807,0,0,1,.227.847c.275-.026.542-.057.8-.091A2.84,2.84,0,0,0,254.429,197.909Z" fill="#ffffff"/>
          </g>
        </g>
      </g>
      <g id="Group_256" data-name="Group 256">
        <g id="Group_255" data-name="Group 255">
          <path id="Path_207" data-name="Path 207" d="M242.939,201.344c1.163,1.153,4.767,1.994,9.033,1.994,4.284,0,7.9-.847,9.045-2.009v2.662a7.89,7.89,0,0,1-3.792,1.536h0a27.507,27.507,0,0,1-5.251.473c-4.266,0-7.87-.841-9.033-1.994Z" fill="#f0efda"/>
        </g>
      </g>
      <g id="Group_258" data-name="Group 258">
        <g id="Group_257" data-name="Group 257">
          <path id="Path_208" data-name="Path 208" d="M261.017,211.3c-1.147,1.161-4.761,2.008-9.045,2.008-4.266,0-7.87-.841-9.033-1.993V208.65c1.163,1.152,4.767,1.993,9.033,1.993,4.284,0,7.9-.847,9.045-2.008Z" fill="#f0efda"/>
        </g>
      </g>
      <g id="Group_260" data-name="Group 260">
        <g id="Group_259" data-name="Group 259">
          <path id="Path_209" data-name="Path 209" d="M254.98,193.019a2.526,2.526,0,0,1-.016.3,2.848,2.848,0,0,1-5.666-.031,2.7,2.7,0,0,1-.013-.271c0-1.573.99-3.384,2.848-2.477C254.073,189.635,254.98,191.446,254.98,193.019Z" fill="#ffa99f"/>
        </g>
      </g>
      <g id="Group_262" data-name="Group 262">
        <g id="Group_261" data-name="Group 261">
          <path id="Path_210" data-name="Path 210" d="M255.733,186.591a2.8,2.8,0,0,0-3.506,1.829,2.8,2.8,0,0,0,3.506-1.829Z" fill="#85d0bc"/>
        </g>
      </g>
    </g>
    <g id="light" opacity="0.35">
      <g id="Group_264" data-name="Group 264">
        <path id="Path_211" data-name="Path 211" d="M250.285,194.147a2.737,2.737,0,0,1,.016-.3,2.838,2.838,0,0,1,4.269-2.15,2.839,2.839,0,0,0-5.269,1.15,3.2,3.2,0,0,0,1.333,2.929A3.848,3.848,0,0,1,250.285,194.147Z" fill="#ffffff"/>
      </g>
    </g>
    <g id="Group_281" data-name="Group 281">
      <g id="Group_266" data-name="Group 266">
        <g id="Group_265" data-name="Group 265">
          <path id="Path_212" data-name="Path 212" d="M252.133,191.014a.5.5,0,0,1-.5-.5v-3.3a.5.5,0,0,1,1,0v3.3A.5.5,0,0,1,252.133,191.014Z" fill="#282b24"/>
        </g>
      </g>
      <g id="Group_268" data-name="Group 268">
        <g id="Group_267" data-name="Group 267">
          <path id="Path_213" data-name="Path 213" d="M253.069,189.017a4.1,4.1,0,0,1-.972-.114.5.5,0,0,1-.34-.652,3.3,3.3,0,0,1,4.107-2.142.5.5,0,0,1,.34.651,3.808,3.808,0,0,1-1.614,1.914A3.291,3.291,0,0,1,253.069,189.017Zm-.068-1a2.464,2.464,0,0,0,1.126-.23,2.34,2.34,0,0,0,.832-.793,2.407,2.407,0,0,0-1.125.23A2.336,2.336,0,0,0,253,188.017Z" fill="#282b24"/>
        </g>
      </g>
      <g id="Group_270" data-name="Group 270">
        <g id="Group_269" data-name="Group 269">
          <path id="Path_214" data-name="Path 214" d="M253.582,192.751a.5.5,0,0,1-.494-.431.708.708,0,0,0-.251-.3.5.5,0,0,1-.252-.66.5.5,0,0,1,.653-.256,1.572,1.572,0,0,1,.84,1.074.5.5,0,0,1-.427.563A.535.535,0,0,1,253.582,192.751Z" fill="#282b24"/>
        </g>
      </g>
      <g id="Group_272" data-name="Group 272">
        <g id="Group_271" data-name="Group 271">
          <path id="Path_215" data-name="Path 215" d="M252.133,196.366a3.329,3.329,0,0,1-3.332-3.03,2.9,2.9,0,0,1-.016-.317,3.49,3.49,0,0,1,1.344-2.917,2.123,2.123,0,0,1,2.008-.106,2.175,2.175,0,0,1,2.047.113,3.459,3.459,0,0,1,1.3,2.91,3.2,3.2,0,0,1-.018.355A3.34,3.34,0,0,1,252.133,196.366Zm-.942-5.566a.986.986,0,0,0-.533.15,2.516,2.516,0,0,0-.873,2.069,1.938,1.938,0,0,0,.011.216,2.348,2.348,0,0,0,4.672.033c.008-.082.012-.166.012-.249a2.506,2.506,0,0,0-.833-2.067,1.323,1.323,0,0,0-1.3.043.5.5,0,0,1-.432,0A1.683,1.683,0,0,0,251.191,190.8Z" fill="#282b24"/>
        </g>
      </g>
      <g id="Group_274" data-name="Group 274">
        <g id="Group_273" data-name="Group 273">
          <path id="Path_216" data-name="Path 216" d="M251.972,213.8c-4.324,0-8.1-.859-9.385-2.138a.5.5,0,0,1-.148-.355V208.65a.5.5,0,0,1,.853-.356c.926.919,4.2,1.849,8.68,1.849,4.5,0,7.777-.936,8.689-1.86a.508.508,0,0,1,.545-.111.5.5,0,0,1,.311.463V211.3a.5.5,0,0,1-.145.352C260.1,212.939,256.321,213.8,251.972,213.8Zm-8.533-2.717c1.093.873,4.271,1.717,8.533,1.717,4.288,0,7.465-.85,8.545-1.729V209.6c-1.717.94-4.935,1.538-8.545,1.538s-6.811-.6-8.533-1.53Zm17.578.209h0Z" fill="#282b24"/>
        </g>
      </g>
      <g id="Group_276" data-name="Group 276">
        <g id="Group_275" data-name="Group 275">
          <path id="Path_217" data-name="Path 217" d="M251.977,217.994c-4.752,0-9.563-1.131-9.563-3.295a1.473,1.473,0,0,1,.025-.263V196.17a.5.5,0,0,1,.987-.116c.216.9,3.384,2.2,8.551,2.2s8.344-1.3,8.552-2.206a.5.5,0,0,1,.544-.385.5.5,0,0,1,.444.5v18.281a1.408,1.408,0,0,1,.023.256C261.54,216.863,256.729,217.994,251.977,217.994Zm-8.538-20.476v16.971a.564.564,0,0,1-.013.116c-.012,1.03,3.324,2.389,8.551,2.389s8.563-1.359,8.563-2.295a.333.333,0,0,0-.009-.082.488.488,0,0,1-.014-.121V197.517c-1.687,1.146-5.2,1.739-8.54,1.739S245.127,198.663,243.439,197.518Z" fill="#282b24"/>
        </g>
      </g>
      <g id="Group_278" data-name="Group 278">
        <g id="Group_277" data-name="Group 277">
          <path id="Path_218" data-name="Path 218" d="M251.972,206.5c-4.325,0-8.1-.859-9.385-2.139a.5.5,0,0,1-.148-.355v-2.662a.5.5,0,0,1,.853-.354c.926.917,4.2,1.848,8.68,1.848,4.5,0,7.776-.935,8.689-1.86a.507.507,0,0,1,.545-.112.5.5,0,0,1,.311.463v2.662a.5.5,0,0,1-.144.352,8.6,8.6,0,0,1-4.05,1.674.478.478,0,0,1-.1.01A27.008,27.008,0,0,1,251.972,206.5Zm-8.533-2.718c1.092.875,4.27,1.718,8.533,1.718a26.9,26.9,0,0,0,5.153-.464.555.555,0,0,1,.1-.009,8.315,8.315,0,0,0,3.292-1.256V202.3c-1.718.942-4.935,1.539-8.545,1.539s-6.811-.6-8.533-1.531Z" fill="#282b24"/>
        </g>
      </g>
      <g id="Group_280" data-name="Group 280">
        <g id="Group_279" data-name="Group 279">
          <path id="Path_219" data-name="Path 219" d="M251.977,199.256a25.662,25.662,0,0,1-5.3-.515c-1.749-.378-3.9-1.112-4.222-2.455a1.39,1.39,0,0,1-.039-.326c0-1.855,3.532-2.853,6.837-3.169a.5.5,0,0,1,.546.451,2.347,2.347,0,0,0,4.671.026.5.5,0,0,1,.182-.336.491.491,0,0,1,.368-.108c3.153.338,6.522,1.34,6.522,3.136a1.355,1.355,0,0,1-.038.323C261.053,198.232,256.37,199.256,251.977,199.256Zm-3.091-5.421c-3.77.427-5.472,1.484-5.472,2.125.124.561,1.1,1.289,3.47,1.8a24.718,24.718,0,0,0,5.093.492c5.18,0,8.344-1.3,8.552-2.206l.011-.09c0-.613-1.608-1.638-5.169-2.089a3.348,3.348,0,0,1-6.485-.036Z" fill="#282b24"/>
        </g>
      </g>
    </g>
  </g>
</svg>